<svg width="500" height="110" viewBox="0 0 500 110" xmlns="http://www.w3.org/2000/svg">
  <g transform="translate(8, 7)">
    <path d="M48,4 C26,4 8,20 8,43 C8,56 15,67 25,75 L25,87 C25,91 28,94 32,94 L64,94 C68,94 71,91 71,87 L71,75 C81,67 88,56 88,43 C88,20 70,4 48,4 Z"
          fill="none" stroke="#3a9a82" stroke-width="3.5" stroke-linejoin="round" stroke-linecap="round"/>
    <line x1="31" y1="54" x2="31" y2="42" stroke="#3a9a82" stroke-width="3.5" stroke-linecap="round"/>
    <line x1="39" y1="60" x2="39" y2="28" stroke="#3a9a82" stroke-width="3.5" stroke-linecap="round"/>
    <line x1="48" y1="64" x2="48" y2="21" stroke="#3a9a82" stroke-width="3.5" stroke-linecap="round"/>
    <line x1="57" y1="60" x2="57" y2="28" stroke="#3a9a82" stroke-width="3.5" stroke-linecap="round"/>
    <line x1="65" y1="54" x2="65" y2="42" stroke="#3a9a82" stroke-width="3.5" stroke-linecap="round"/>
  </g>
  <text x="112" y="57" font-family="Arial, Helvetica, sans-serif" font-weight="700" font-size="40" letter-spacing="7" fill="#1a2a36">OFFTYPE</text>
  <text x="114" y="78" font-family="Arial, Helvetica, sans-serif" font-weight="400" font-size="11" letter-spacing="3.5" fill="#3a9a82">YOUR VOICE. STAYS LOCAL.</text>
</svg>
