<svg width="100" height="108" viewBox="0 0 100 108" xmlns="http://www.w3.org/2000/svg">
  <path d="M50,4 C26,4 6,22 6,47 C6,61 13,73 25,82 L25,95 C25,99 28,102 32,102 L68,102 C72,102 75,99 75,95 L75,82 C87,73 94,61 94,47 C94,22 74,4 50,4 Z"
        fill="#1a2a36" stroke="#4ecaaa" stroke-width="3.5" stroke-linejoin="round" stroke-linecap="round"/>
  <line x1="33" y1="59" x2="33" y2="45" stroke="#4ecaaa" stroke-width="3.5" stroke-linecap="round"/>
  <line x1="41" y1="66" x2="41" y2="30" stroke="#4ecaaa" stroke-width="3.5" stroke-linecap="round"/>
  <line x1="50" y1="71" x2="50" y2="23" stroke="#4ecaaa" stroke-width="3.5" stroke-linecap="round"/>
  <line x1="59" y1="66" x2="59" y2="30" stroke="#4ecaaa" stroke-width="3.5" stroke-linecap="round"/>
  <line x1="67" y1="59" x2="67" y2="45" stroke="#4ecaaa" stroke-width="3.5" stroke-linecap="round"/>
</svg>
